<?xml version="1.0" encoding="utf-8"?>
<!-- Generator: Adobe Illustrator 16.0.0, SVG Export Plug-In . SVG Version: 6.00 Build 0)  -->
<!DOCTYPE svg PUBLIC "-//W3C//DTD SVG 1.1//EN" "http://www.w3.org/Graphics/SVG/1.1/DTD/svg11.dtd">
<svg version="1.1" id="Layer_1" xmlns="http://www.w3.org/2000/svg" xmlns:xlink="http://www.w3.org/1999/xlink" x="0px" y="0px"
	 width="400px" height="400px" viewBox="0 0 400 400" enable-background="new 0 0 400 400" xml:space="preserve">
<g>
	<path fill="#F4805C" d="M0,330c0,38.66,31.34,70,70,70h260c38.66,0,70-31.34,70-70V70c0-38.66-31.34-70-70-70H70
		C31.34,0,0,31.34,0,70V330z"/>
</g>
<path fill="#FFFFFF" d="M314.567,104.859c-3.886,25.238-7.774,31.069-7.774,56.308c0,15.53,29.126,29.125,29.126,29.125v19.417
	c0,0-29.126,13.596-29.126,29.126c0,25.238,3.889,31.059,7.774,56.317c5.823,40.768-15.549,60.185-34.965,60.185s-40.769,0-40.769,0
	v-38.832c0,0,34.948,3.887,34.948-19.419c0-17.482-3.888-17.482-7.757-56.316c-1.952-17.464,9.709-31.06,21.352-40.768
	c-11.643-9.708-23.304-21.362-21.352-38.834c3.869-38.834,7.757-38.834,7.757-56.308c0-23.305-34.948-21.36-34.948-21.36V44.665
	c0,0,19.417,0,40.769,0C300.972,44.665,320.391,64.082,314.567,104.859z"/>
<path fill="#FFFFFF" d="M85.442,104.859c3.878,25.238,7.765,31.069,7.765,56.308c0,15.53-29.126,29.125-29.126,29.125v19.417
	c0,0,29.126,13.596,29.126,29.126c0,25.238-3.887,31.059-7.765,56.317c-5.832,40.768,15.529,60.185,34.947,60.185s40.777,0,40.777,0
	v-38.832c0,0-34.947,3.887-34.947-19.419c0-17.482,3.878-17.482,7.766-56.316c1.944-17.464-9.709-31.06-21.36-40.768
	c11.651-9.708,23.305-21.362,21.36-38.834c-5.831-38.834-7.766-38.834-7.766-56.308c0-23.305,34.947-21.36,34.947-21.36V44.665
	c0,0-19.417,0-40.777,0C99.027,44.665,79.611,64.082,85.442,104.859z"/>
</svg>
